<svg width="1280" height="400" viewBox="0 0 1280 400" role="img" xmlns="http://www.w3.org/2000/svg">
  <title>Hafiz Muhammad Awais – Data Scientist and AI Engineer</title>
  <rect width="1280" height="400" fill="#0d1117"/>

  <!-- Neural nodes left -->
  <circle cx="60" cy="80" r="6" fill="#0056D2" opacity="0.6"/>
  <circle cx="140" cy="160" r="5" fill="#0056D2" opacity="0.4"/>
  <circle cx="40" cy="240" r="4" fill="#1a8cff" opacity="0.5"/>
  <circle cx="120" cy="320" r="6" fill="#0056D2" opacity="0.35"/>
  <circle cx="200" cy="100" r="4" fill="#1a8cff" opacity="0.4"/>
  <circle cx="220" cy="260" r="5" fill="#0056D2" opacity="0.3"/>
  <circle cx="90" cy="370" r="4" fill="#1a8cff" opacity="0.3"/>
  <circle cx="180" cy="200" r="4" fill="#0056D2" opacity="0.5"/>
  <circle cx="30" cy="150" r="3" fill="#1a8cff" opacity="0.35"/>
  <circle cx="160" cy="290" r="3" fill="#0056D2" opacity="0.4"/>

  <!-- Connections left -->
  <line x1="60" y1="80" x2="140" y2="160" stroke="#0056D2" stroke-width="1" opacity="0.3"/>
  <line x1="140" y1="160" x2="40" y2="240" stroke="#0056D2" stroke-width="1" opacity="0.25"/>
  <line x1="40" y1="240" x2="120" y2="320" stroke="#1a8cff" stroke-width="1" opacity="0.2"/>
  <line x1="60" y1="80" x2="200" y2="100" stroke="#0056D2" stroke-width="1" opacity="0.25"/>
  <line x1="200" y1="100" x2="180" y2="200" stroke="#1a8cff" stroke-width="1" opacity="0.2"/>
  <line x1="180" y1="200" x2="220" y2="260" stroke="#0056D2" stroke-width="1" opacity="0.25"/>
  <line x1="140" y1="160" x2="180" y2="200" stroke="#1a8cff" stroke-width="1" opacity="0.2"/>
  <line x1="120" y1="320" x2="90" y2="370" stroke="#0056D2" stroke-width="1" opacity="0.2"/>
  <line x1="30" y1="150" x2="60" y2="80" stroke="#1a8cff" stroke-width="1" opacity="0.2"/>
  <line x1="160" y1="290" x2="120" y2="320" stroke="#0056D2" stroke-width="1" opacity="0.2"/>

  <!-- Neural nodes right -->
  <circle cx="1220" cy="80" r="6" fill="#0056D2" opacity="0.6"/>
  <circle cx="1140" cy="160" r="5" fill="#1a8cff" opacity="0.4"/>
  <circle cx="1240" cy="240" r="4" fill="#0056D2" opacity="0.5"/>
  <circle cx="1160" cy="320" r="6" fill="#1a8cff" opacity="0.35"/>
  <circle cx="1080" cy="100" r="4" fill="#0056D2" opacity="0.4"/>
  <circle cx="1060" cy="260" r="5" fill="#1a8cff" opacity="0.3"/>
  <circle cx="1190" cy="370" r="4" fill="#0056D2" opacity="0.3"/>
  <circle cx="1100" cy="200" r="4" fill="#1a8cff" opacity="0.5"/>
  <circle cx="1250" cy="150" r="3" fill="#0056D2" opacity="0.35"/>
  <circle cx="1120" cy="290" r="3" fill="#1a8cff" opacity="0.4"/>

  <!-- Connections right -->
  <line x1="1220" y1="80" x2="1140" y2="160" stroke="#0056D2" stroke-width="1" opacity="0.3"/>
  <line x1="1140" y1="160" x2="1240" y2="240" stroke="#1a8cff" stroke-width="1" opacity="0.25"/>
  <line x1="1240" y1="240" x2="1160" y2="320" stroke="#0056D2" stroke-width="1" opacity="0.2"/>
  <line x1="1220" y1="80" x2="1080" y2="100" stroke="#1a8cff" stroke-width="1" opacity="0.25"/>
  <line x1="1080" y1="100" x2="1100" y2="200" stroke="#0056D2" stroke-width="1" opacity="0.2"/>
  <line x1="1100" y1="200" x2="1060" y2="260" stroke="#1a8cff" stroke-width="1" opacity="0.25"/>
  <line x1="1140" y1="160" x2="1100" y2="200" stroke="#0056D2" stroke-width="1" opacity="0.2"/>
  <line x1="1160" y1="320" x2="1190" y2="370" stroke="#1a8cff" stroke-width="1" opacity="0.2"/>
  <line x1="1250" y1="150" x2="1220" y2="80" stroke="#0056D2" stroke-width="1" opacity="0.2"/>
  <line x1="1120" y1="290" x2="1160" y2="320" stroke="#1a8cff" stroke-width="1" opacity="0.2"/>

  <!-- Top accent bar -->
  <rect x="490" y="110" width="300" height="2" fill="#0056D2" opacity="0.8" rx="1"/>

  <!-- Name -->
  <text x="640" y="195" font-family="Segoe UI, Arial, sans-serif" font-size="54" font-weight="700" fill="#ffffff" text-anchor="middle" letter-spacing="2">Hafiz Muhammad Awais</text>

  <!-- Title -->
  <text x="640" y="240" font-family="Segoe UI, Arial, sans-serif" font-size="22" font-weight="400" fill="#0056D2" text-anchor="middle" letter-spacing="5">DATA SCIENTIST  &amp;  AI ENGINEER</text>

  <!-- Bottom accent bar -->
  <rect x="490" y="258" width="300" height="2" fill="#0056D2" opacity="0.8" rx="1"/>

  <!-- Specialties -->
  <text x="640" y="305" font-family="Segoe UI, Arial, sans-serif" font-size="18" font-weight="400" fill="#8b949e" text-anchor="middle" letter-spacing="3">Machine Learning  ·  Deep Learning  ·  RAG  ·  Generative AI</text>

  <!-- Side accent dots -->
  <circle cx="320" cy="200" r="3" fill="#0056D2" opacity="0.4"/>
  <circle cx="960" cy="200" r="3" fill="#0056D2" opacity="0.4"/>
</svg>
